<svg aria-hidden="true" style="position: absolute; width: 0; height: 0; overflow: hidden;" version="1.1" xmlns="http://www.w3.org/2000/svg" xmlns:xlink="http://www.w3.org/1999/xlink">
<defs>
<symbol id="icon-edit" viewBox="0 0 20 20">
<path d="M17.561 2.439c-1.442-1.443-2.525-1.227-2.525-1.227l-12.826 12.825-1.010 4.762 4.763-1.010 12.826-12.823c-0.001 0 0.216-1.083-1.228-2.527zM5.68 17.217l-1.624 0.35c-0.156-0.293-0.345-0.586-0.69-0.932s-0.639-0.533-0.932-0.691l0.35-1.623 0.47-0.469c0 0 0.883 0.018 1.881 1.016 0.997 0.996 1.016 1.881 1.016 1.881l-0.471 0.468z"></path>
</symbol>
<symbol id="icon-error_outline" viewBox="0 0 24 24">
<path d="M12 20.016q3.281 0 5.648-2.367t2.367-5.648-2.367-5.648-5.648-2.367-5.648 2.367-2.367 5.648 2.367 5.648 5.648 2.367zM12 2.016q4.125 0 7.055 2.93t2.93 7.055-2.93 7.055-7.055 2.93-7.055-2.93-2.93-7.055 2.93-7.055 7.055-2.93zM11.016 6.984h1.969v6h-1.969v-6zM11.016 15h1.969v2.016h-1.969v-2.016z"></path>
</symbol>
<symbol id="icon-replay" viewBox="0 0 24 24">
<path d="M12 5.016q3.328 0 5.672 2.344t2.344 5.625q0 3.328-2.367 5.672t-5.648 2.344-5.648-2.344-2.367-5.672h2.016q0 2.484 1.758 4.242t4.242 1.758 4.242-1.758 1.758-4.242-1.758-4.242-4.242-1.758v4.031l-5.016-5.016 5.016-5.016v4.031z"></path>
</symbol>
<symbol id="icon-dvr" viewBox="0 0 24 24">
<path d="M6.984 12v2.016h-1.969v-2.016h1.969zM6.984 8.016v1.969h-1.969v-1.969h1.969zM18.984 12v2.016h-10.969v-2.016h10.969zM18.984 8.016v1.969h-10.969v-1.969h10.969zM21 17.016v-12h-18v12h18zM21 3q0.797 0 1.406 0.609t0.609 1.406l-0.047 12q0 0.797-0.586 1.383t-1.383 0.586h-5.016v2.016h-7.969v-2.016h-5.016q-0.797 0-1.406-0.586t-0.609-1.383v-12q0-0.797 0.609-1.406t1.406-0.609h18z"></path>
</symbol>
<symbol id="icon-now_widgets" viewBox="0 0 24 24">
<path d="M16.641 1.688l5.672 5.672-5.672 5.625h4.359v8.016h-8.016v-8.016h3.656l-5.625-5.625v3.656h-8.016v-8.016h8.016v4.359zM3 21v-8.016h8.016v8.016h-8.016z"></path>
</symbol>
<symbol id="icon-table_chart" viewBox="0 0 24 24">
<path d="M3 18.984v-9h5.016v11.016h-3q-0.797 0-1.406-0.609t-0.609-1.406zM20.016 3q0.797 0 1.383 0.609t0.586 1.406v3h-18.984v-3q0-0.797 0.609-1.406t1.406-0.609h15zM17.016 21v-11.016h4.969v9q0 0.797-0.586 1.406t-1.383 0.609h-3zM9.984 10.031h5.016v10.969h-5.016v-10.969z"></path>
</symbol>
<symbol id="icon-grid_view" viewBox="0 0 24 24">
<path d="M18.984 18.984v-3.984h-3.984v3.984h3.984zM12.984 12.984h8.016v8.016h-8.016v-8.016zM18.984 9v-3.984h-3.984v3.984h3.984zM12.984 3h8.016v8.016h-8.016v-8.016zM9 18.984v-3.984h-3.984v3.984h3.984zM3 12.984h8.016v8.016h-8.016v-8.016zM9 9v-3.984h-3.984v3.984h3.984zM3 3h8.016v8.016h-8.016v-8.016z"></path>
</symbol>
<symbol id="icon-verified" viewBox="0 0 24 24">
<path d="M23.016 12l-2.438-2.813 0.328-3.656-3.609-0.844-1.875-3.188-3.422 1.453-3.422-1.453-1.875 3.188-3.609 0.797 0.328 3.703-2.438 2.813 2.438 2.813-0.328 3.656 3.609 0.844 1.875 3.188 3.422-1.453 3.422 1.453 1.875-3.188 3.609-0.844-0.328-3.656zM10.078 16.734l-3.797-3.844 1.5-1.453 2.297 2.344 5.859-5.906 1.5 1.5z"></path>
</symbol>
<symbol id="icon-video_settings" viewBox="0 0 24 24">
<path d="M3 6h18v5.016h2.016v-5.016q0-0.844-0.586-1.43t-1.43-0.586h-18q-0.844 0-1.43 0.586t-0.586 1.43v12q0 0.844 0.586 1.43t1.43 0.586h9v-2.016h-9v-12zM15 12l-6-3.984v7.969zM22.688 18.422q0.094-0.469 0.047-0.844l1.078-0.844q0.141-0.141 0.047-0.328l-1.031-1.781q-0.094-0.188-0.328-0.141l-1.266 0.516q-0.328-0.234-0.75-0.422l-0.188-1.359q-0.047-0.234-0.281-0.234h-2.063q-0.188 0-0.234 0.234l-0.188 1.359q-0.234 0.094-0.422 0.188t-0.328 0.234l-1.313-0.516q-0.188-0.094-0.281 0.094l-1.031 1.828q-0.094 0.188 0.047 0.281l1.078 0.891q-0.047 0.469 0 0.844l-1.078 0.844q-0.188 0.141-0.047 0.328l1.031 1.781q0.094 0.188 0.281 0.141l1.266-0.516q0.375 0.234 0.75 0.422l0.234 1.359q0 0.188 0.234 0.188h2.063q0.234 0 0.234-0.188l0.234-1.359 0.375-0.188t0.328-0.234l1.313 0.516q0.188 0.047 0.281-0.141l1.031-1.781q0.141-0.188-0.047-0.328zM18.984 19.5q-0.609 0-1.055-0.445t-0.445-1.055 0.445-1.055 1.055-0.445q0.656 0 1.078 0.445t0.422 1.055-0.422 1.055-1.078 0.445z"></path>
</symbol>
<symbol id="icon-outbond" viewBox="0 0 24 24">
<path d="M12 2.016q-2.063 0-3.867 0.773t-3.188 2.156-2.156 3.188-0.773 3.867 0.773 3.867 2.156 3.188 3.188 2.156 3.867 0.773 3.867-0.773 3.188-2.156 2.156-3.188 0.773-3.867-0.773-3.867-2.156-3.188-3.188-2.156-3.867-0.773zM13.875 11.531l-4.969 4.969-1.406-1.406 4.969-4.969-2.109-2.109h5.625v5.625z"></path>
</symbol>
<symbol id="icon-alert-octagon" viewBox="0 0 24 24">
<path d="M7.86 1c-0.256 0-0.512 0.098-0.707 0.293l-5.86 5.86c-0.181 0.181-0.293 0.431-0.293 0.707v8.28c0 0.256 0.098 0.512 0.293 0.707l5.86 5.86c0.181 0.181 0.431 0.293 0.707 0.293h8.28c0.256 0 0.512-0.098 0.707-0.293l5.86-5.86c0.181-0.181 0.293-0.431 0.293-0.707v-8.28c0-0.256-0.098-0.512-0.293-0.707l-5.86-5.86c-0.181-0.181-0.431-0.293-0.707-0.293zM8.274 3h7.452l5.274 5.274v7.452l-5.274 5.274h-7.452l-5.274-5.274v-7.452zM11 8v4c0 0.552 0.448 1 1 1s1-0.448 1-1v-4c0-0.552-0.448-1-1-1s-1 0.448-1 1zM12 17c0.552 0 1-0.448 1-1s-0.448-1-1-1-1 0.448-1 1 0.448 1 1 1z"></path>
</symbol>
<symbol id="icon-error" viewBox="0 0 24 24">
<path d="M12.984 12.984v-6h-1.969v6h1.969zM12.984 17.016v-2.016h-1.969v2.016h1.969zM12 2.016q4.125 0 7.055 2.93t2.93 7.055-2.93 7.055-7.055 2.93-7.055-2.93-2.93-7.055 2.93-7.055 7.055-2.93z"></path>
</symbol>
<symbol id="icon-warning" viewBox="0 0 32 32">
<path d="M30.555 25.219l-12.519-21.436c-1.044-1.044-2.738-1.044-3.782 0l-12.52 21.436c-1.044 1.043-1.044 2.736 0 3.781h28.82c1.046-1.045 1.046-2.738 0.001-3.781zM14.992 11.478c0-0.829 0.672-1.5 1.5-1.5s1.5 0.671 1.5 1.5v7c0 0.828-0.672 1.5-1.5 1.5s-1.5-0.672-1.5-1.5v-7zM16.501 24.986c-0.828 0-1.5-0.67-1.5-1.5 0-0.828 0.672-1.5 1.5-1.5s1.5 0.672 1.5 1.5c0 0.83-0.672 1.5-1.5 1.5z"></path>
</symbol>
<symbol id="icon-warning1" viewBox="0 0 32 32">
<path d="M16 2.899l13.409 26.726h-26.819l13.409-26.726zM16 0c-0.69 0-1.379 0.465-1.903 1.395l-13.659 27.222c-1.046 1.86-0.156 3.383 1.978 3.383h27.166c2.134 0 3.025-1.522 1.978-3.383h0l-13.659-27.222c-0.523-0.93-1.213-1.395-1.903-1.395v0z"></path>
<path d="M18 26c0 1.105-0.895 2-2 2s-2-0.895-2-2c0-1.105 0.895-2 2-2s2 0.895 2 2z"></path>
<path d="M16 22c-1.105 0-2-0.895-2-2v-6c0-1.105 0.895-2 2-2s2 0.895 2 2v6c0 1.105-0.895 2-2 2z"></path>
</symbol>
</defs>
</svg>
