<svg width="34" height="34" viewBox="0 0 34 34" fill="none" xmlns="http://www.w3.org/2000/svg">
<path fill-rule="evenodd" clip-rule="evenodd" d="M14.8573 0.973155C15.5114 0.553721 16.2494 0.333374 17 0.333374C17.7506 0.333374 18.4886 0.553721 19.1427 0.973155C19.7968 1.39259 20.345 1.99695 20.7343 2.72793L20.7385 2.7358L33.0695 26.182L33.0814 26.2049C33.4627 26.9571 33.6645 27.8099 33.6666 28.6784C33.6688 29.547 33.4712 30.4011 33.0935 31.1557C32.7159 31.9103 32.1713 32.5392 31.514 32.9797C30.8568 33.4202 30.1097 33.657 29.3471 33.6665L29.3311 33.6667L4.65289 33.6666C3.89031 33.6571 3.14322 33.4202 2.48594 32.9797C1.82866 32.5392 1.28411 31.9103 0.906452 31.1557C0.528798 30.4011 0.33121 29.547 0.333345 28.6784C0.335481 27.8099 0.537266 26.9571 0.918624 26.2049L0.93045 26.182L12.1167 4.9127L13.2657 2.72793C13.655 1.99695 14.2032 1.39259 14.8573 0.973155ZM15.757 4.44455L3.43533 27.8728C3.31132 28.1212 3.24575 28.4019 3.24505 28.6877C3.24433 28.9773 3.3102 29.262 3.43608 29.5135C3.56197 29.765 3.74349 29.9746 3.96258 30.1215C4.17975 30.267 4.42634 30.3459 4.67821 30.3503H29.3218C29.5736 30.3459 29.8202 30.267 30.0374 30.1215C30.2565 29.9746 30.438 29.765 30.5639 29.5135C30.6898 29.262 30.7557 28.9773 30.7549 28.6877C30.7542 28.4019 30.6887 28.1212 30.5647 27.8729L18.2448 4.44784L18.243 4.44455C18.1133 4.20237 17.9313 4.0021 17.7142 3.86292C17.4962 3.72311 17.2502 3.64966 17 3.64966C16.7498 3.64966 16.5038 3.72311 16.2858 3.86292C16.0687 4.0021 15.8867 4.20237 15.757 4.44455ZM17 10.3334C17.9205 10.3334 18.6667 11.0796 18.6667 12V18.6667C18.6667 19.5872 17.9205 20.3334 17 20.3334C16.0795 20.3334 15.3333 19.5872 15.3333 18.6667V12C15.3333 11.0796 16.0795 10.3334 17 10.3334ZM17 23.6667C16.0795 23.6667 15.3333 24.4129 15.3333 25.3334C15.3333 26.2539 16.0795 27 17 27H17.0167C17.9371 27 18.6833 26.2539 18.6833 25.3334C18.6833 24.4129 17.9371 23.6667 17.0167 23.6667H17Z" fill="#FFDE8D"/>
</svg>
