<svg width="25" height="24" viewBox="0 0 25 24" fill="none" xmlns="http://www.w3.org/2000/svg">
<path fill-rule="evenodd" clip-rule="evenodd" d="M19.6013 5.29289C19.994 5.68342 19.994 6.31658 19.6013 6.70711L7.53577 18.7071C7.14311 19.0976 6.50649 19.0976 6.11383 18.7071C5.72117 18.3166 5.72117 17.6834 6.11383 17.2929L18.1794 5.29289C18.5721 4.90237 19.2087 4.90237 19.6013 5.29289Z" fill="black"/>
<path fill-rule="evenodd" clip-rule="evenodd" d="M6.11383 5.29289C6.50649 4.90237 7.14311 4.90237 7.53577 5.29289L19.6013 17.2929C19.994 17.6834 19.994 18.3166 19.6013 18.7071C19.2087 19.0976 18.5721 19.0976 18.1794 18.7071L6.11383 6.70711C5.72117 6.31658 5.72117 5.68342 6.11383 5.29289Z" fill="black"/>
</svg>
